<?xml version="1.0" encoding="UTF-8"?>
<!-- Created with Inkscape (http://www.inkscape.org/) -->
<svg id="svg859" width="500" height="250" version="1.1" viewBox="0 0 132.29 66.146" xmlns="http://www.w3.org/2000/svg" xmlns:cc="http://creativecommons.org/ns#" xmlns:dc="http://purl.org/dc/elements/1.1/" xmlns:rdf="http://www.w3.org/1999/02/22-rdf-syntax-ns#">
 <metadata id="metadata856">
  <rdf:RDF>
   <cc:Work rdf:about="">
    <dc:format>image/svg+xml</dc:format>
    <dc:type rdf:resource="http://purl.org/dc/dcmitype/StillImage"/>
    <dc:title/>
   </cc:Work>
  </rdf:RDF>
 </metadata>
 <g id="layer1" transform="translate(0 -230.85)" stroke-width=".26458">
  <path id="path815" d="m50.913 290.28a30.459 30.444 0 0 0 22.547 3.1798c-0.26377-0.0668-0.52784-0.12507-0.79185-0.20687-0.17712-0.0562-0.3663-0.0762-0.53832-0.14394-0.12754-0.0505-0.23904-0.14709-0.54272-0.35288-0.08245-0.19955-0.4539-0.67357-0.33867-0.91582 0.1914-0.40185 0.67083-0.88579 1.0727-0.92892 1.5656-0.168 3.1597-0.3236 4.7225-0.20786 0.964 0.0712 1.9246 0.1909 2.8838 0.32859a30.459 30.444 0 0 0 11.979-10.946c-0.19326 0.14338-0.38225 0.29366-0.57907 0.43189-4.6533 3.2653-10.053 3.4136-15.45 3.3766-0.47754-4e-3 -1.1624-0.54591-1.3586-1.0063-0.15537-0.36306 0.15386-1.1335 0.50343-1.4558 0.55974-0.51617 1.2916-1.0654 2.0059-1.1524 2.1069-0.25676 4.2479-0.45464 6.3634-0.37436 2.7164 0.10306 5.1653-0.27605 7.2874-2.1492 1.3272-1.1717 2.6766-2.3283 4.0754-3.4153a30.459 30.444 0 0 0 1.8099-11.063c-0.03776 0.0601-0.07353 0.1223-0.09166 0.17929-0.93367 2.9383-3.8469 4.9166-6.4189 6.3276-2.9155 1.5994-6.1102 2.5539-9.2229 3.6816-1.0863 0.39357-2.2798 0.49136-3.4544 0.73136-0.35186-1.6296 0.67552-2.0737 1.5151-2.3823 2.6961-0.99098 5.4194-1.9254 8.1759-2.7319 4.5862-1.3419 7.8383-4.037 9.3215-8.4273a30.459 30.444 0 0 0-1.312-6.1431c-0.10472 0.17521-0.20497 0.34107-0.30739 0.48743-0.61294 0.87489-1.1035 1.9111-1.9028 2.5654-1.9552 1.6005-4.1079 2.9564-6.0861 4.5312-2.4253 1.9307-5.3093 2.8347-8.1603 3.7807-0.97142 0.32226-2.1222 0.23946-3.1695 0.13173-0.4133-0.0426-1.0095-0.61388-1.0834-1.0221-0.08006-0.44634 0.21132-1.1982 0.58482-1.4387 0.87705-0.56449 1.8661-1.0274 2.8713-1.31 2.503-0.70362 5.1699-0.88233 7.3824-2.4615 1.9454-1.3887 3.9419-2.7103 5.839-4.1618 1.2596-0.96371 2.4837-2.6418 2.691-4.5555a30.459 30.444 0 0 0-6.6838-9.235c-1.0706 1.3945-2.1064 2.8208-3.2985 4.1017-0.92214 0.99086-2.123 1.7498-3.28 2.4851-0.76324 0.48507-1.6746 0.65464-2.3831-0.21217-0.73147-0.89448-0.19166-1.666 0.44103-2.2897 0.50889-0.50154 1.0936-0.9194 1.7212-1.2611 1.6109-0.87705 3.3849-1.5117 4.8568-2.5714 0.42759-0.30797 0.782-0.68461 1.0468-1.1007a30.459 30.444 0 0 0-4.7846-3.4278 30.459 30.444 0 0 0-6.4093-2.7361c-0.8268 1.1452-1.2375 2.7339-1.0897 4.6639 0.02928 0.38164-0.35286 0.79394-0.54385 1.1924-0.27152-0.36331-0.82181-0.77686-0.76704-1.0817 0.27445-1.5271 0.75759-3.016 1.0615-4.5393 0.03764-0.18858 0.07377-0.40013 0.10405-0.6167a30.459 30.444 0 0 0-4.5367-0.77034c-0.24677 0.17818-0.44917 0.36563-0.5193 0.56557-0.558 1.5914-1.1489 3.272-1.1739 4.923-0.02995 1.9838 0.57006 3.9705 0.79796 5.9675 0.12449 1.0908 0.18684 2.2304-0.0046 3.2976-0.09466 0.52679-0.81011 1.2832-1.2781 1.3085-0.49762 0.0267-1.2879-0.58215-1.5047-1.1005-0.53646-1.2802-1.0665-2.6509-1.1541-4.0138-0.23601-3.6744 0.6179-7.1538 2.452-10.377 0.12299-0.21617 0.18564-0.46556 0.23974-0.72097a30.459 30.444 0 0 0-6.6766 0.54883c-1.088 0.8188-1.8236 2.0573-1.8235 3.7344 2.2e-5 1.0054-0.12192 2.0575-0.4408 3.0042-0.70892 2.1052-0.42011 4.0801 0.2085 6.1493 0.75654 2.4907 1.295 5.0521 1.8221 7.6044 0.08536 0.41483-0.26616 1.0773-0.62438 1.3662-0.21 0.16929-1.0284-0.0267-1.2404-0.307-2.4024-3.1893-4.4666-6.4922-3.814-10.804 0.26989-1.783 0.10764-3.6311 0.36005-5.4184 0.15981-1.1315 0.7153-2.2092 1.1091-3.3052 0.12016-0.3345 0.28473-0.65222 0.43304-0.97652a30.459 30.444 0 0 0-9.1451 4.9906c-1.244 3.0942-1.6018 6.3713-0.94693 9.6619 0.5254 2.6406 1.8579 5.1213 2.831 7.6726 0.27997 0.73375 0.68128 1.4451 0.80598 2.2035 0.06659 0.40556-0.23332 1.0251-0.57028 1.2863-0.20058 0.1554-1.039-0.0731-1.1737-0.33989-1.29-2.5482-2.7299-5.0609-3.6346-7.7493-0.62108-1.8457-0.33406-3.9768-0.68334-5.939-0.21555-1.2109-0.33321-2.3749-0.20231-3.4686a30.459 30.444 0 0 0-3.8762 5.2667 30.459 30.444 0 0 0-2.4551 5.5013c0.08961 0.42536 0.14948 0.82672 0.11444 1.1734-0.31198 3.0844 1.118 5.1895 2.757 7.4433 0.92081 1.2664 1.4577 2.8302 2.0392 4.3103 0.12875 0.32792-0.28436 0.86886-0.44776 1.3114-0.40406-0.22949-0.97568-0.35464-1.1874-0.7011-1.278-2.0854-2.5378-4.1882-3.6642-6.3574-0.4057-0.78096-0.45127-1.7579-0.61565-2.6533-0.02429-0.13266-0.04494-0.2664-0.06925-0.39917a30.459 30.444 0 0 0 0.89894 14.754c0.152 0.18132 0.31012 0.3573 0.46063 0.53969 0.32303 0.39224 0.3212 1.0504 0.4694 1.5866-0.05383 7e-3 -0.10901 0.0166-0.16327 0.0233a30.459 30.444 0 0 0 11.548 14.11c9.2552-19.932 18.313-32.838 18.313-32.838-8.4508 14.675-13.785 25.696-17.147 33.59a30.459 30.444 0 0 0 0.29817 0.19191zm-6.7824-8.8891c-0.15909-0.12081-0.27761-0.29432-0.32666-0.50004-0.03095-0.13007-0.06062-0.25476-0.08917-0.37493l-0.0026 4e-3c-0.11862-0.49629 0.20833-0.98529 0.71097-1.0762 0.27864-0.0505 0.51356-0.0651 0.60148 0.0416 0.208 0.25275 0.35723 0.55371 0.48452 0.87294 0.22736 0.56901-0.17665 1.192-0.78943 1.2154l-0.01833-2e-3c-0.21086 7e-3 -0.41171-0.0599-0.57079-0.18059zm17.119 8.9502c-0.18171-0.0742-0.29465-0.30498-0.38792-0.58308-0.21788-0.64953 0.17815-1.6283 0.8491-1.4905 3.491 0.71756 3.8691 1.6807 3.766 1.943-0.14174 0.35984-0.8641 0.70163-1.3184 0.68399-0.98422-0.0379-2.0192-0.17004-2.9088-0.55335zm-13.4-13.781c-0.2273-0.15006-0.43546-0.38444-0.60123-0.67443-0.62123-1.0866-1.358-2.1125-1.8949-3.2367-0.15237-0.31797 0.09195-1.1121 0.38576-1.2797 0.13859-0.0781 0.32632-0.0692 0.53013-0.0267 0.50537 0.10417 0.95653 0.38743 1.2946 0.7768 0.71349 0.82344 1.414 1.5707 1.8833 2.4422 0.24883 0.46312 0.0053 1.5518-0.40591 1.9229-0.38058 0.34353-0.81293 0.32627-1.1917 0.0764zm14.52 6.4896c-0.19452-0.0921-0.36634-0.19554-0.51134-0.31095-0.87672-0.69643-0.75807-1.5299 0.31481-2.2018 0.90853-0.56897 4.3205-0.31064 5.1842 0.39186 0.76521 0.62282 0.7316 1.7193-0.06685 2.1781-1.1483 0.6597-3.5591 0.58826-4.9208-0.0572zm0.71256-7.8503c-0.19412-0.1075-0.37055-0.23746-0.52483-0.39417-0.21675-0.21952-0.29428-0.92943-0.11829-1.122 0.67793-0.74203 4.3427-0.39886 5.1798 0.46476-0.98821 1.363-3.1778 1.8023-4.5367 1.0514zm-11.141-8.6793c-0.40728-0.2581-0.68072-0.82818-0.75288-1.4843-0.14302-1.296 0.99678-2.4341 2.2628-2.1196l-8.59e-4 2e-3c0.05507 0.0166 0.1131 0.0267 0.16571 0.0499 0.88279 0.3306 1.1883 2.462 0.54971 3.2384-0.60529 0.7359-1.4382 0.80856-2.2244 0.31394zm14.597 0.674c-0.413-0.29865-0.45798-0.93707-0.03584-1.2888 0.0031-2e-3 0.0067-4e-3 0.01129-0.01 0.14318-0.12008 0.32443-0.1859 0.51122-0.18724 0.6008-4e-3 1.2042-0.0233 1.7874 0.0748 0.12612 0.02 1.5362 0.44845 0.17328 1.0784-0.64278 0.29733-1.1829 0.43754-1.8841 0.47063-0.02962-2e-3 -0.28061-4e-3 -0.36392-0.0333-0.07374-0.0267-0.14039-0.0625-0.19938-0.10508zm7.994-9.618c-0.08169-0.0731-0.14678-0.16597-0.18564-0.26973-0.25721-0.67992 0.60347-1.4598 0.9165-1.5866 1.9035-0.77101 3.8861-1.3483 5.8587-1.9377 0.21648-0.065 0.68044 0.16021 0.77449 0.36757 0.09896 0.21685-0.01758 0.7488-0.19698 0.84285-1.8653 0.97639-3.6034 1.7604-5.5117 2.6499-0.18624 0.0868-0.874 0.23981-1.3675 0.0921-0.10657-0.03-0.20617-0.0847-0.28786-0.15837z" fill="#e2e3db"/>
  <text id="text1412" x="64.758026" y="277.62402" fill="#000000" font-family="sans-serif" font-size="42.107px" letter-spacing="0px" word-spacing="0px" style="line-height:1.25" xml:space="preserve"><tspan id="tspan1410" x="64.758026" y="277.62402" font-family="'Open Sans'" font-size="42.107px" font-stretch="condensed" font-weight="300" letter-spacing="0px" stroke-width=".26458" text-align="center" text-anchor="middle" style="font-feature-settings:normal;font-variant-caps:normal;font-variant-ligatures:normal;font-variant-numeric:normal">leaflog</tspan></text>
 </g>
</svg>
